<svg width="331" height="311" viewBox="0 0 331 311" fill="none" xmlns="http://www.w3.org/2000/svg">
<path fill-rule="evenodd" clip-rule="evenodd" d="M26.4608 169.998C17.2608 129.906 43.6242 91.1259 73.0029 62.3345C96.7896 39.0232 130.751 36.9239 164.011 35.1978C198.214 33.4228 234.61 29.753 260.103 52.6245C289.341 78.8557 304.435 118.223 300.063 157.259C295.26 200.147 275.095 243.211 236.579 262.677C198.674 281.834 154.976 267.363 116.118 250.223C77.5138 233.196 35.8974 211.122 26.4608 169.998Z" fill="white"/>
<path d="M233.822 65.1714C237.719 65.1714 240.877 62.0129 240.877 58.1166C240.877 54.2203 237.719 51.0617 233.822 51.0617C229.926 51.0617 226.767 54.2203 226.767 58.1166C226.767 62.0129 229.926 65.1714 233.822 65.1714Z" fill="#38A69D"/>
<path d="M233.822 175.287C237.719 175.287 240.877 172.129 240.877 168.232C240.877 164.336 237.719 161.177 233.822 161.177C229.926 161.177 226.767 164.336 226.767 168.232C226.767 172.129 229.926 175.287 233.822 175.287Z" fill="#38A69D"/>
<path d="M233.822 116.079C237.719 116.079 240.877 112.92 240.877 109.024C240.877 105.127 237.719 101.969 233.822 101.969C229.926 101.969 226.767 105.127 226.767 109.024C226.767 112.92 229.926 116.079 233.822 116.079Z" fill="#38A69D"/>
<path d="M262.823 252.828V213.839C262.823 213.839 278.017 241.481 262.823 252.828Z" fill="#F1F1F1"/>
<path d="M263.761 252.821L235.039 226.454C235.039 226.454 265.678 233.954 263.761 252.821Z" fill="#CBCBCB"/>
<path d="M139.682 149.837C139.618 149.123 139.711 148.404 139.955 147.731C140.199 147.057 140.588 146.445 141.094 145.937C141.6 145.43 142.212 145.04 142.885 144.794C143.558 144.549 144.277 144.454 144.991 144.517L150.169 134.583L156.973 136.257L149.464 150.183C149.28 151.375 148.664 152.458 147.735 153.227C146.805 153.996 145.625 154.398 144.42 154.355C143.214 154.313 142.065 153.829 141.192 152.996C140.319 152.164 139.781 151.04 139.682 149.837H139.682Z" fill="#FFB7B7"/>
<path d="M170.588 246.614L164.846 246.614L162.115 224.468L170.589 224.468L170.588 246.614Z" fill="#FFB7B7"/>
<path d="M172.052 252.18L153.539 252.179V251.945C153.539 250.034 154.298 248.201 155.65 246.85C157.001 245.498 158.834 244.739 160.745 244.739H160.745L172.053 244.739L172.052 252.18Z" fill="#2F2E41"/>
<path d="M216.767 242.325L211.227 243.835L202.765 223.188L210.94 220.959L216.767 242.325Z" fill="#FFB7B7"/>
<path d="M219.643 247.309L201.782 252.18L201.721 251.954C201.218 250.11 201.468 248.142 202.416 246.483C203.365 244.823 204.933 243.609 206.777 243.106L206.777 243.106L217.686 240.131L219.643 247.309Z" fill="#2F2E41"/>
<path d="M160.106 150.949L157.242 194.441L163.394 243.237L173.472 240.161L173.896 196.563L181.958 171.422L205.826 238.57L216.752 234.539L207.735 190.941L202.643 149.994L160.106 150.949Z" fill="#2F2E41"/>
<path d="M187.95 74.5765L170.98 77.0789L164.867 83.1252L162.969 104.85L164.148 124.092L159.233 158.026C159.233 158.026 171.592 151.165 181.169 159.753C190.747 168.341 204.149 161.271 204.425 155.558L187.95 74.5765Z" fill="#CBCBCB"/>
<path d="M179.333 101.822L179.333 101.798L187.763 74.3188L187.872 74.3117C188.472 74.2726 202.606 73.4396 205.767 80.4183L205.783 80.452L204.822 109.009L206.145 153.733L180.004 159.395L179.814 159.436L179.333 101.822Z" fill="#2F2E41"/>
<path d="M169.991 99.9229L171.537 76.6278C160.538 77.312 160.704 85.1101 160.717 85.4502L160.597 120.295L158.394 157.573L166.403 156.972L169.991 99.9229Z" fill="#2F2E41"/>
<path d="M145.189 142.31L154.954 119.648L161.77 107.132L165.328 129.709L152.973 148.241L145.189 142.31Z" fill="#2F2E41"/>
<path d="M185.545 133.972C185.695 133.271 185.996 132.611 186.428 132.04C186.86 131.468 187.412 130.998 188.045 130.662C188.679 130.327 189.378 130.134 190.094 130.098C190.81 130.063 191.524 130.184 192.188 130.454L200.066 122.49L206.074 126.097L194.791 137.188C194.263 138.273 193.355 139.126 192.24 139.587C191.125 140.047 189.879 140.083 188.739 139.686C187.6 139.29 186.645 138.489 186.056 137.436C185.468 136.383 185.286 135.15 185.545 133.972Z" fill="#FFB7B7"/>
<path d="M192.17 127.547L208.232 109.926L197.6 94.7548L198.694 87.3373L204.961 79.5964L205.083 79.7546C205.751 80.6189 221.448 101.011 221.898 108.731C222.35 116.48 199.789 136.08 198.828 136.91L198.694 137.026L192.17 127.547Z" fill="#2F2E41"/>
<path d="M178.158 72.6679C184.463 72.6679 189.575 67.5567 189.575 61.2516C189.575 54.9466 184.463 49.8354 178.158 49.8354C171.853 49.8354 166.742 54.9466 166.742 61.2516C166.742 67.5567 171.853 72.6679 178.158 72.6679Z" fill="#FFB7B7"/>
<path d="M188.895 52.1249L189.449 51.011L186.664 49.6274C186.664 49.6274 183.592 44.6287 178.033 46.0334C172.474 47.4382 169.973 48.2789 169.973 48.2789L167.195 49.6766L168.589 51.0637L166.088 51.9044L167.759 52.7346L165.815 53.8521L166.861 59.5805C166.861 59.5805 168.599 55.2357 171.941 56.896C175.283 58.5564 181.396 56.0378 181.396 56.0378L186.706 66.3153C186.706 66.3153 187.802 62.7125 189.755 63.6732C189.755 63.6732 194.745 55.7259 188.895 52.1249Z" fill="#2F2E41"/>
<path d="M106.884 182.461C127.213 182.461 143.693 165.981 143.693 145.652C143.693 125.323 127.213 108.843 106.884 108.843C86.5553 108.843 70.0755 125.323 70.0755 145.652C70.0755 165.981 86.5553 182.461 106.884 182.461Z" fill="#38A69D"/>
<path d="M117.082 143.304V136.261C117.083 134.921 116.82 133.594 116.308 132.356C115.796 131.118 115.045 129.993 114.098 129.045C113.151 128.097 112.026 127.345 110.788 126.832C109.551 126.319 108.224 126.055 106.884 126.055C105.544 126.055 104.217 126.319 102.98 126.832C101.742 127.345 100.617 128.097 99.6703 129.045C98.7232 129.993 97.9722 131.118 97.4601 132.356C96.948 133.594 96.685 134.921 96.686 136.261V143.304C95.3228 143.365 94.0357 143.95 93.0925 144.936C92.1493 145.922 91.6226 147.234 91.6219 148.598V165.242H122.146V148.598C122.145 147.234 121.619 145.922 120.676 144.936C119.732 143.95 118.445 143.365 117.082 143.304ZM106.884 129.653C108.636 129.655 110.315 130.352 111.554 131.591C112.792 132.83 113.489 134.509 113.491 136.261V143.292H100.277V136.261C100.279 134.509 100.976 132.83 102.214 131.591C103.453 130.352 105.132 129.655 106.884 129.653Z" fill="white"/>
<path d="M109.628 151.523C109.628 151.05 109.506 150.585 109.273 150.173C109.041 149.761 108.705 149.416 108.3 149.172C107.895 148.928 107.434 148.792 106.961 148.779C106.488 148.766 106.02 148.875 105.601 149.096C105.183 149.318 104.829 149.643 104.574 150.041C104.319 150.44 104.171 150.897 104.145 151.37C104.118 151.842 104.215 152.313 104.424 152.737C104.634 153.161 104.95 153.524 105.341 153.79V159.754H108.427V153.79C108.797 153.539 109.1 153.201 109.309 152.806C109.519 152.41 109.628 151.97 109.628 151.523Z" fill="#38A69D"/>
<path d="M315.82 252.609H36.2879C36.0933 252.609 35.9067 252.553 35.7691 252.451C35.6315 252.35 35.5542 252.213 35.5542 252.07C35.5542 251.927 35.6315 251.79 35.7691 251.689C35.9067 251.588 36.0933 251.531 36.2879 251.531H315.82C316.015 251.531 316.202 251.588 316.339 251.689C316.477 251.79 316.554 251.927 316.554 252.07C316.554 252.213 316.477 252.35 316.339 252.451C316.202 252.553 316.015 252.609 315.82 252.609Z" fill="#4A4A4A"/>
</svg>
